<svg xmlns="http://www.w3.org/2000/svg" viewBox="456 52 1016 296" aria-label="New Era Ventures" role="img" fill="currentColor"><title>New Era Ventures</title><g transform="translate(0,394) scale(0.1,-0.1)"><path d="M4666 3316 l-26 -25 0 -666 0 -666 25 -24 c39 -40 85 -29 104 26 7 22 11 207 11 583 l0 551 36 -40 c20 -22 50 -56 67 -75 18 -19 74 -82 126 -140 123 -137 149 -152 192 -109 45 45 54 34 -426 565 -42 46 -77 53 -109 20z"/><path d="M5875 3328 c-11 -6 -23 -16 -27 -22 -4 -6 -8 -267 -8 -580 l0 -569 -26 24 c-14 13 -92 97 -172 187 -85 95 -156 165 -170 169 -60 15 -99 -42 -66 -96 36 -58 449 -509 477 -522 25 -10 32 -9 55 8 l27 20 3 676 2 675 -26 21 c-30 24 -41 25 -69 9z"/><path d="M6166 3319 c-31 -25 -33 -57 -6 -87 l21 -22 624 0 c612 0 625 0 645 20 28 28 25 64 -6 89 -26 21 -35 21 -639 21 -604 0 -613 0 -639 -21z"/><path d="M7682 3333 c-7 -3 -19 -18 -28 -34 -14 -28 -13 -33 12 -87 38 -80 177 -381 508 -1102 42 -91 85 -173 97 -182 41 -35 80 -17 110 50 24 53 107 234 168 365 23 49 41 92 41 97 0 5 5 12 10 15 6 4 26 -27 46 -72 19 -43 49 -106 65 -139 16 -34 53 -115 83 -180 59 -132 88 -164 133 -148 23 8 43 45 145 264 65 140 135 293 157 340 22 47 64 139 94 205 30 66 75 163 99 215 25 52 48 105 52 118 4 12 12 22 18 22 6 0 9 3 6 6 -3 3 12 43 34 90 21 47 38 94 36 106 -2 11 -15 30 -30 41 -23 17 -31 18 -56 8 -26 -11 -40 -34 -95 -154 -154 -335 -334 -724 -405 -875 -70 -149 -77 -161 -88 -140 -6 13 -60 129 -119 258 -60 129 -115 243 -123 253 -20 23 -67 22 -89 -2 -10 -11 -49 -89 -88 -173 -38 -84 -91 -200 -118 -258 l-50 -104 -18 39 c-10 22 -50 110 -90 195 -39 85 -93 202 -119 260 -178 395 -314 678 -331 693 -21 17 -42 20 -67 10z"/><path d="M10335 3315 c-14 -13 -25 -29 -25 -35 0 -16 21 -53 34 -62 6 -4 291 -8 634 -8 609 0 622 0 642 20 26 26 25 51 -1 84 l-20 26 -620 0 -620 0 -24 -25z"/><path d="M11837 3320 c-32 -26 -35 -62 -7 -90 19 -19 33 -20 470 -20 285 0 467 -4 500 -11 55 -12 137 -62 154 -94 6 -11 14 -22 17 -25 27 -23 38 -161 17 -221 -18 -52 -64 -104 -121 -135 l-52 -29 -481 -3 c-465 -3 -482 -4 -503 -23 -27 -26 -27 -60 2 -87 22 -21 29 -21 472 -24 l450 -3 55 -26 c65 -31 130 -92 162 -151 20 -39 23 -61 28 -228 3 -102 9 -192 13 -201 12 -24 52 -42 76 -34 46 14 61 60 61 185 0 221 -45 356 -152 456 l-53 49 65 65 c116 116 151 231 115 371 -30 118 -124 227 -233 271 -56 23 -62 23 -543 26 -481 3 -485 3 -512 -18z"/><path d="M13672 3329 c-123 -24 -261 -138 -324 -267 l-33 -67 -3 -517 -3 -518 25 -25 c30 -30 45 -31 79 -5 l26 21 3 502 3 502 26 55 c33 69 87 123 164 164 l60 31 275 0 275 0 60 -28 c73 -34 128 -85 163 -152 l27 -50 5 -505 c4 -384 8 -510 18 -527 29 -51 106 -31 117 30 4 18 5 250 3 517 l-3 485 -33 77 c-57 132 -171 231 -311 270 -56 15 -102 18 -321 17 -140 -1 -274 -5 -298 -10z"/><path d="M6162 2667 c-27 -29 -28 -47 -1 -81 l20 -26 623 0 623 0 21 23 c28 30 28 58 -1 85 l-23 22 -620 0 -621 0 -21 -23z"/><path d="M10331 2664 c-12 -15 -21 -32 -21 -39 0 -7 9 -24 21 -39 l20 -26 623 0 c482 0 626 3 639 13 28 21 32 72 8 96 -21 21 -24 21 -645 21 l-625 0 -20 -26z"/><path d="M6193 2043 c-26 -5 -53 -39 -53 -66 0 -10 11 -29 25 -42 l24 -25 616 0 616 0 24 25 c30 29 32 55 6 86 l-19 24 -609 1 c-334 1 -618 0 -630 -3z"/><path d="M10363 2043 c-26 -5 -53 -39 -53 -66 0 -10 11 -29 25 -42 l24 -25 620 0 620 0 20 26 c26 33 26 55 2 85 l-19 24 -609 1 c-334 1 -618 0 -630 -3z"/><path d="M4660 1730 c-11 -11 -20 -25 -20 -32 0 -7 26 -69 59 -138 85 -182 117 -251 272 -589 202 -439 192 -421 234 -421 35 0 36 0 91 118 31 64 76 160 99 212 24 52 61 133 83 180 44 95 203 438 251 543 33 72 39 115 19 135 -16 16 -63 15 -76 -1 -10 -11 -63 -124 -169 -357 -14 -30 -57 -122 -95 -205 -38 -82 -77 -166 -86 -185 -8 -19 -39 -84 -67 -143 l-51 -109 -46 99 c-26 54 -58 123 -71 153 -22 50 -48 104 -137 295 -15 33 -67 146 -115 250 -48 105 -92 196 -97 203 -16 18 -55 15 -78 -8z"/><path d="M5936 1734 c-23 -22 -20 -71 3 -84 13 -6 200 -10 538 -10 453 0 521 2 541 16 27 19 28 48 2 74 -19 19 -33 20 -544 20 -464 0 -526 -2 -540 -16z"/><path d="M7191 1724 c-21 -26 -21 -35 -21 -571 0 -497 2 -547 17 -574 21 -36 76 -41 93 -10 6 13 10 187 10 495 0 419 4 513 22 467 3 -9 125 -145 227 -253 57 -61 86 -71 115 -42 34 33 20 58 -135 231 -252 279 -256 283 -283 283 -15 0 -33 -11 -45 -26z"/><path d="M8209 1733 c-11 -13 -15 -110 -19 -496 l-5 -480 -148 161 c-83 91 -156 162 -166 162 -20 0 -61 -35 -61 -53 0 -7 11 -27 24 -45 21 -29 325 -370 369 -414 20 -21 67 -24 85 -6 9 9 12 153 12 584 0 507 -2 574 -16 588 -20 21 -58 20 -75 -1z"/><path d="M8467 1732 c-22 -24 -21 -55 1 -75 16 -15 49 -17 260 -17 l242 0 0 -523 c0 -575 -1 -567 59 -567 35 0 49 16 55 61 3 19 5 258 5 532 l1 497 218 0 c181 0 221 3 240 16 27 18 29 55 4 77 -17 15 -69 17 -544 17 -496 0 -526 -1 -541 -18z"/><path d="M9734 1736 c-18 -14 -19 -30 -19 -453 l0 -438 33 -68 c65 -131 186 -218 314 -225 78 -5 98 6 98 49 0 36 -28 54 -93 63 -88 11 -165 66 -210 150 -21 40 -22 51 -27 474 -5 415 -6 434 -24 448 -25 18 -47 18 -72 0z"/><path d="M10740 1728 c-20 -22 -20 -32 -20 -423 0 -220 -2 -413 -5 -429 -21 -110 -121 -199 -237 -213 -32 -4 -59 -14 -74 -28 -29 -26 -30 -38 -7 -65 14 -16 30 -20 75 -20 108 0 225 65 292 163 67 97 67 103 66 581 0 298 -4 433 -11 443 -17 20 -56 16 -79 -9z"/><path d="M10990 1720 l-21 -30 25 -25 25 -25 388 0 c223 0 403 -4 422 -10 122 -35 193 -175 146 -288 -18 -41 -45 -73 -90 -105 -29 -21 -40 -22 -451 -27 l-422 -5 -21 -25 c-25 -31 -25 -29 -1 -60 l19 -25 393 -5 c448 -6 435 -3 517 -96 57 -65 71 -119 71 -274 0 -143 10 -170 60 -170 23 0 33 7 46 32 14 27 16 53 11 168 -8 184 -34 256 -125 344 l-41 39 49 44 c185 167 134 454 -98 549 -56 23 -61 24 -469 24 l-412 0 -21 -30z"/><path d="M12267 1732 c-21 -23 -22 -56 -1 -76 14 -14 76 -16 540 -16 l525 0 24 26 25 26 -21 29 -20 29 -528 0 c-499 0 -529 -1 -544 -18z"/><path d="M13738 1731 c-152 -60 -224 -169 -216 -329 4 -92 29 -150 91 -212 50 -50 94 -74 165 -89 88 -19 145 -15 170 12 27 28 27 35 2 67 -17 22 -28 25 -104 30 -74 5 -92 10 -128 36 -111 77 -119 259 -14 339 70 53 80 54 504 55 378 0 393 1 412 20 24 24 25 38 4 68 l-15 22 -412 0 c-375 -1 -416 -3 -459 -19z"/><path d="M5950 1197 c-35 -18 -43 -66 -14 -89 20 -17 62 -18 542 -18 561 0 541 -2 557 51 5 15 1 28 -14 43 -21 21 -26 21 -534 23 -400 2 -517 0 -537 -10z"/><path d="M12281 1197 c-39 -20 -45 -54 -16 -83 l24 -24 521 0 c507 0 521 1 540 20 26 26 25 52 -1 76 -20 18 -46 19 -533 21 -393 2 -517 0 -535 -10z"/><path d="M14220 1198 c-31 -17 -38 -62 -14 -89 13 -14 31 -19 73 -19 77 0 125 -15 168 -53 116 -102 88 -295 -52 -358 -37 -17 -73 -19 -435 -19 -342 0 -399 -2 -418 -16 -25 -17 -30 -65 -8 -83 10 -9 128 -11 443 -9 l428 3 51 27 c63 33 119 94 152 167 21 45 26 71 26 131 0 66 -4 82 -34 138 -40 76 -113 144 -177 166 -68 23 -172 30 -203 14z"/><path d="M5938 640 c-19 -14 -25 -26 -21 -42 12 -50 -7 -48 558 -48 503 0 533 1 548 18 21 23 21 41 1 67 -14 19 -28 20 -538 23 -512 2 -523 2 -548 -18z"/><path d="M12272 644 c-24 -17 -30 -62 -10 -82 9 -9 144 -12 546 -12 498 0 536 1 548 18 19 25 17 49 -6 72 -19 19 -33 20 -538 20 -452 0 -520 -2 -540 -16z"/></g></svg>